<?xml version="1.0" encoding="UTF-8"?>
<!DOCTYPE svg PUBLIC "-//W3C//DTD SVG 1.1//EN" "http://www.w3.org/Graphics/SVG/1.1/DTD/svg11.dtd">
<!-- Creator: CorelDRAW 2020 (64 Bit) -->
<svg xmlns="http://www.w3.org/2000/svg" xml:space="preserve" width="297mm" height="210mm" version="1.1" style="shape-rendering:geometricPrecision; text-rendering:geometricPrecision; image-rendering:optimizeQuality; fill-rule:evenodd; clip-rule:evenodd"
viewBox="0 0 29700 21000"
 xmlns:xlink="http://www.w3.org/1999/xlink"
 xmlns:xodm="http://www.corel.com/coreldraw/odm/2003">
 <defs>
  <style type="text/css">
   <![CDATA[
    .fil0 {fill:aqua;fill-rule:nonzero}
    .fil1 {fill:white;fill-rule:nonzero}
   ]]>
  </style>
 </defs>
 <g id="Camada_x0020_1">
  <metadata id="CorelCorpID_0Corel-Layer"/>
  <path class="fil0" d="M8201.19 11281.54c-12.82,36.31 -19.23,67.27 -19.23,92.9 0,40.57 13.35,73.14 40.05,97.7 26.69,24.56 63.53,36.84 110.51,36.84 40.58,0 83.29,-9.08 128.14,-27.23 44.84,-18.15 88.62,-45.91 131.33,-83.29 42.72,-37.37 83.29,-83.82 121.73,-139.34 38.44,-55.53 70.47,-120.66 96.1,-195.41l605.43 -1713.79c19.22,-64.07 48.59,-115.32 88.1,-153.76 39.5,-38.44 82.22,-64.6 128.13,-78.48 45.92,-13.88 91.83,-16.02 137.74,-6.41 45.92,9.61 84.89,29.36 116.93,59.26 32.03,29.9 53.39,69.94 64.06,120.13 10.68,50.18 4.28,109.45 -19.22,177.78l-605.43 1697.78c-49.12,132.41 -112.65,245.59 -190.6,339.56 -77.95,93.96 -163.37,171.37 -256.27,232.24 -92.89,60.86 -190.06,105.17 -291.5,132.94 -101.44,27.76 -199.14,41.64 -293.11,41.64 -121.73,0 -231.17,-22.42 -328.34,-67.27 -97.17,-44.85 -173.52,-106.78 -229.04,-185.79 -81.15,79.01 -174.05,140.94 -278.69,185.79 -104.64,44.85 -210.36,67.27 -317.13,67.27 -79.02,0 -152.7,-12.28 -221.04,-36.84 -68.33,-24.56 -127.6,-59.26 -177.78,-104.11 -50.19,-44.84 -89.69,-98.77 -118.52,-161.77 -28.84,-63 -43.25,-131.87 -43.25,-206.61 0,-34.17 2.67,-68.34 8.01,-102.51 5.34,-34.17 14.41,-69.41 27.23,-105.71l647.07 -1845.13c19.22,-64.07 48.59,-115.32 88.1,-153.76 39.5,-38.44 82.21,-64.6 128.13,-78.48 45.91,-13.88 91.83,-16.02 137.74,-6.41 45.92,9.61 84.89,29.36 116.93,59.26 32.03,29.9 53.92,69.94 65.66,120.13 11.75,50.18 5.88,109.45 -17.61,177.78l-637.47 1800.29c-10.68,29.9 -16.02,61.93 -16.02,96.1 0,36.3 10.15,66.2 30.43,89.69 20.29,23.49 48.59,35.24 84.89,35.24 42.71,0 87.56,-11.75 134.54,-35.24 46.99,-23.49 92.37,-55.52 136.15,-96.1 43.78,-40.57 84.35,-88.62 121.72,-144.15 37.38,-55.52 68.88,-114.25 94.5,-176.18l-3.2 3.2 605.43 -1691.37c19.22,-64.07 48.59,-115.32 88.09,-153.76 39.51,-38.44 82.22,-64.6 128.14,-78.48 45.91,-13.88 91.83,-16.02 137.74,-6.41 45.92,9.61 84.89,29.36 116.92,59.26 32.04,29.9 53.39,69.94 64.07,120.13 10.68,50.18 4.27,109.45 -19.22,177.78l-647.07 1813.1zm3293.04 -313.93c19.22,-64.06 54.46,-106.78 105.71,-128.13 51.25,-21.36 100.91,-26.7 148.96,-16.02 48.05,10.68 87.02,35.77 116.92,75.28 29.9,39.51 35.24,87.02 16.01,142.55 -57.66,166.57 -121.72,304.85 -192.2,414.83 -70.47,109.98 -144.15,197.54 -221.03,262.68 -76.88,65.13 -155.36,111.05 -235.44,137.74 -80.09,26.7 -158.57,40.04 -235.45,40.04 -68.34,0 -134.01,-9.61 -197.01,-28.83 -62.99,-19.22 -119.05,-48.05 -168.17,-86.49 -49.12,-38.44 -88.63,-86.49 -118.53,-144.15 -29.89,-57.66 -44.84,-123.86 -44.84,-198.61 0,-64.06 12.81,-134.54 38.44,-211.42l0 3.21 230.64 -656.69c8.54,-17.08 12.81,-36.3 12.81,-57.66 0,-29.9 -10.14,-54.99 -30.43,-75.28 -20.29,-20.29 -46.45,-30.43 -78.48,-30.43 -49.12,0 -98.77,20.29 -148.96,60.86 -50.18,40.58 -92.36,91.83 -126.53,153.76l-384.4 1079.53c-32.04,85.43 -77.95,141.48 -137.75,168.18 -59.79,26.69 -116.38,30.43 -169.77,11.21 -53.39,-19.22 -95.04,-59.26 -124.93,-120.13 -29.9,-60.86 -28.83,-136.14 3.2,-225.83l749.58 -2098.2c21.36,-68.33 50.19,-121.72 86.49,-160.16 36.31,-38.44 74.75,-63.54 115.32,-75.28 40.58,-11.75 80.09,-11.75 118.53,0 38.44,11.74 69.94,33.1 94.5,64.07 24.56,30.96 40.04,71 46.45,120.12 6.4,49.12 -3.21,104.64 -28.83,166.57l-172.99 506.13c64.07,-27.76 132.41,-41.64 205.02,-41.64 64.07,0 124.4,11.75 180.99,35.24 56.59,23.49 105.71,55.52 147.35,96.1 41.65,40.57 74.21,88.62 97.7,144.15 23.5,55.52 35.24,115.32 35.24,179.39 0,55.52 -9.61,113.18 -28.83,172.98l-262.67 743.17c-6.41,12.82 -9.61,26.7 -9.61,41.65 0,23.49 9.07,43.24 27.23,59.26 18.15,16.02 42.17,24.03 72.07,24.03 72.61,0 151.09,-43.25 235.45,-129.74 84.35,-86.49 161.77,-225.84 232.24,-418.04zm622.12 -1744.68c94.69,-92.71 393.35,143.77 393.35,232.7 0,151.66 -288.69,291.45 -389.95,249.08 -110.5,-46.24 -88.62,-398.35 -3.4,-481.78zm-301.78 2132.29c-6.41,19.22 -9.61,36.3 -9.61,51.25 0,29.9 11.21,55.53 33.63,76.88 22.43,21.36 51.79,32.04 88.1,32.04 32.03,0 66.2,-9.08 102.5,-27.23 36.31,-18.16 73.68,-48.59 112.12,-91.3 38.44,-42.71 77.41,-98.77 116.92,-168.17 39.51,-69.41 78.48,-156.43 116.93,-261.08 21.35,-59.79 57.66,-100.37 108.91,-121.72 51.25,-21.36 101.44,-27.23 150.56,-17.62 49.11,9.61 88.62,33.1 118.52,70.47 29.9,37.37 35.24,84.89 16.02,142.55 -55.53,166.57 -118.53,304.32 -189,413.23 -70.47,108.92 -144.15,196.47 -221.03,262.68 -76.88,66.2 -155.36,112.65 -235.45,139.34 -80.08,26.7 -159.63,40.04 -238.65,40.04 -74.74,0 -144.68,-10.67 -209.82,-32.03 -65.13,-21.36 -122.79,-52.32 -172.98,-92.9 -50.18,-40.57 -89.69,-90.22 -118.52,-148.95 -28.83,-58.73 -43.25,-125.47 -43.25,-200.21 0,-27.76 3.74,-60.87 11.21,-99.31 7.48,-38.44 16.56,-73.67 27.23,-105.71 25.63,-74.74 52.86,-153.76 81.69,-237.04 28.83,-83.29 58.19,-167.11 88.09,-251.47 29.9,-84.35 59.26,-168.71 88.09,-253.06 28.83,-84.36 56.06,-163.91 81.69,-238.65 29.9,-87.56 75.28,-148.42 136.14,-182.59 60.86,-34.17 119.06,-44.85 174.58,-32.04 55.53,12.82 99.31,47.52 131.34,104.11 32.03,56.6 34.17,130.81 6.41,222.64l-352.37 1005.85zm2239.14 -378c19.22,-59.79 54.45,-101.97 105.71,-126.53 51.25,-24.56 101.97,-32.03 152.16,-22.42 50.18,9.61 90.22,33.63 120.12,72.07 29.9,38.44 33.1,89.7 9.61,153.76 -55.52,155.9 -117.99,288.3 -187.39,396.68 -69.41,108.92 -143.09,196.48 -221.04,263.21 -77.94,66.74 -158.56,114.79 -241.85,144.69 -83.29,29.36 -165.51,44.31 -246.66,44.31 -68.33,0 -132.94,-10.14 -194.33,-30.43 -61.4,-20.29 -116.39,-49.65 -163.91,-88.09 -47.51,-38.44 -85.42,-85.96 -113.18,-142.55 -27.23,-56.6 -41.11,-122.26 -41.11,-197.01 0,-70.47 13.88,-140.95 41.11,-211.42l224.77 -637.47c4.27,-14.95 8,-29.36 11.21,-43.24 3.2,-13.88 4.8,-26.16 4.8,-36.84 0,-29.9 -9.07,-53.92 -27.23,-72.08 -18.15,-18.15 -42.17,-27.22 -72.07,-27.22 -44.85,0 -93.43,19.22 -145.75,57.66 -52.33,38.44 -99.84,98.23 -142.55,179.38 -27.77,76.88 -57.13,159.64 -88.1,248.26 -30.96,88.63 -62.46,178.32 -94.49,269.09 -32.04,90.76 -64.07,180.45 -96.1,269.08 -32.04,88.62 -61.94,171.38 -89.7,248.26 -17.08,51.25 -42.71,92.89 -76.88,124.93 -34.17,32.03 -71.01,55.52 -110.51,70.47 -39.51,14.95 -79.55,20.82 -120.13,17.62 -40.58,-3.2 -75.28,-14.95 -104.11,-35.24 -28.83,-20.29 -49.65,-49.12 -62.46,-86.49 -12.82,-37.37 -11.75,-82.75 3.2,-136.14l534.96 -1497.03c12.81,-44.32 38.44,-77.42 76.88,-98.24 38.44,-21.35 79.55,-32.57 123.33,-33.63 43.78,-1.07 84.35,6.94 121.73,24.02 37.37,17.09 61.39,40.04 72.07,69.94 85.42,-48.58 187.93,-73.14 307.52,-73.14 64.07,0 124.93,10.68 182.59,32.03 57.66,21.36 107.85,50.72 150.56,88.09 42.71,37.38 76.88,82.76 102.51,136.15 25.62,53.38 38.44,112.11 38.44,176.18 0,51.25 -11.75,109.98 -35.24,176.18l3.2 -3.2 -253.06 714.35c-10.68,36.3 -16.02,63 -16.02,80.08 0,57.66 29.9,86.49 89.7,86.49 74.74,0 153.76,-42.71 237.04,-128.13 83.29,-85.42 160.17,-224.24 230.65,-416.44zm1518.39 16.02c17.08,-55.53 50.71,-95.03 100.9,-118.52 50.19,-23.5 100.37,-31.5 150.56,-24.03 50.18,7.47 90.76,29.36 121.73,65.67 30.96,36.3 35.77,86.49 14.41,150.56 -53.39,153.76 -122.79,283.49 -208.22,389.2 -85.42,105.71 -180.45,191.67 -285.1,257.87 -104.64,66.21 -214.62,114.26 -329.94,144.15 -115.32,29.9 -228.51,44.85 -339.56,44.85 -117.45,0 -226.37,-14.41 -326.74,-43.24 -100.37,-28.83 -187.39,-70.48 -261.07,-124.94 -73.68,-54.45 -131.87,-120.12 -174.58,-197 -42.71,-76.88 -64.07,-163.37 -64.07,-259.47 0,-36.31 3.74,-73.68 11.21,-112.12 7.48,-38.44 17.62,-76.88 30.43,-115.32l189 -547.77c27.76,-79.02 65.14,-148.96 112.12,-209.82 46.98,-60.87 100.37,-112.12 160.17,-153.76 59.79,-41.65 124.39,-72.61 193.8,-92.9 69.4,-20.29 139.34,-30.43 209.82,-30.43 89.69,0 171.91,13.88 246.66,41.64 74.74,27.76 138.27,65.67 190.6,113.72 52.32,48.05 92.89,104.64 121.72,169.78 28.83,65.13 43.25,136.14 43.25,213.02 0,53.39 -8.54,112.12 -25.63,176.18 -21.35,72.61 -52.85,137.75 -94.5,195.41 -41.64,57.66 -90.23,106.78 -145.75,147.35 -55.52,40.58 -116.92,72.08 -184.19,94.5 -67.27,22.43 -137.21,33.64 -209.82,33.64 -64.07,0 -124.4,-8.55 -180.99,-25.63 -56.59,-17.08 -108.38,-40.58 -155.36,-70.47l-25.63 60.86c-10.68,27.76 -16.02,57.66 -16.02,89.69 0,74.75 34.17,137.75 102.51,189 68.34,51.26 161.24,76.88 278.69,76.88 68.34,0 139.35,-10.14 213.02,-30.43 73.68,-20.29 144.15,-51.79 211.43,-94.5 67.27,-42.71 129.2,-97.17 185.79,-163.37 56.59,-66.2 103.04,-146.29 139.35,-240.25zm-704.74 -595.82c-36.31,0 -72.08,13.34 -107.31,40.04 -35.24,26.69 -62.47,64.6 -81.69,113.72l-67.27 192.2c29.9,17.08 64.6,28.83 104.11,35.23 39.51,6.41 78.48,6.41 116.92,0 38.44,-6.4 73.14,-20.82 104.11,-43.24 30.97,-22.42 52.86,-54.99 65.67,-97.7 8.54,-23.49 12.81,-49.12 12.81,-76.88 0,-44.85 -13.35,-83.29 -40.04,-115.32 -26.69,-32.04 -62.46,-48.05 -107.31,-48.05z"/>
  <path class="fil1" d="M16593.43 11797.28l0 -2293.6 449.54 0 943.92 1537.08 0 -1537.08 429.25 0 0 2293.6 -463.95 0 -929.51 -1507.71 0 1507.71 -429.25 0zm2207.64 -851.56c0,-146.28 35.77,-287.76 107.85,-424.44 72.08,-137.21 174.05,-241.32 305.92,-313.4 131.87,-72.07 278.69,-108.38 441.53,-108.38 251.46,0 457.01,81.69 617.71,245.06 160.7,163.91 240.79,369.99 240.79,619.85 0,252 -81.16,460.75 -242.92,626.25 -162.31,165.51 -366.25,248.26 -612.38,248.26 -152.16,0 -297.38,-34.7 -435.65,-103.57 -137.75,-68.87 -242.92,-169.78 -315,-303.25 -72.08,-132.94 -107.85,-295.24 -107.85,-486.38zm568.6 402.56c87.3,146.11 702.61,-196.02 693.52,-382.27 -12.14,-248.9 -637.47,-461.89 -693.52,-375.86 -47.49,72.89 -44.64,683.4 0,758.13zm1798.14 449l-525.35 -1662.54 427.12 0 311.26 1089.67 286.7 -1089.67 423.91 0 276.02 1089.67 317.66 -1089.67 433.52 0 -533.89 1662.54 -421.77 0 -285.64 -1069.39 -281.89 1069.39 -427.65 0z"/>
 </g>
</svg>
